<mxfile host="app.diagrams.net" agent="Mozilla/5.0 (Macintosh; Intel Mac OS X 10_15_7) AppleWebKit/537.36 (KHTML, like Gecko) Chrome/134.0.0.0 Safari/537.36" version="26.1.0">
  <diagram id="C5RBs43oDa-KdzZeNtuy" name="Page-1">
    <mxGraphModel dx="2790" dy="1268" grid="1" gridSize="10" guides="1" tooltips="1" connect="1" arrows="1" fold="1" page="1" pageScale="1" pageWidth="827" pageHeight="1169" math="0" shadow="0">
      <root>
        <mxCell id="WIyWlLk6GJQsqaUBKTNV-0" />
        <mxCell id="WIyWlLk6GJQsqaUBKTNV-1" parent="WIyWlLk6GJQsqaUBKTNV-0" />
        <mxCell id="QhF9T44IF_bWHAfbp_xp-7" value="" style="edgeStyle=orthogonalEdgeStyle;rounded=0;orthogonalLoop=1;jettySize=auto;html=1;" parent="WIyWlLk6GJQsqaUBKTNV-1" source="WIyWlLk6GJQsqaUBKTNV-3" target="QhF9T44IF_bWHAfbp_xp-6" edge="1">
          <mxGeometry relative="1" as="geometry" />
        </mxCell>
        <mxCell id="WIyWlLk6GJQsqaUBKTNV-3" value="Start" style="rounded=1;whiteSpace=wrap;html=1;fontSize=12;glass=0;strokeWidth=1;shadow=0;" parent="WIyWlLk6GJQsqaUBKTNV-1" vertex="1">
          <mxGeometry x="160" y="80" width="120" height="40" as="geometry" />
        </mxCell>
        <mxCell id="QhF9T44IF_bWHAfbp_xp-9" value="" style="edgeStyle=orthogonalEdgeStyle;rounded=0;orthogonalLoop=1;jettySize=auto;html=1;" parent="WIyWlLk6GJQsqaUBKTNV-1" source="QhF9T44IF_bWHAfbp_xp-6" target="QhF9T44IF_bWHAfbp_xp-8" edge="1">
          <mxGeometry relative="1" as="geometry" />
        </mxCell>
        <mxCell id="QhF9T44IF_bWHAfbp_xp-6" value="bff获取相应数据" style="rounded=0;whiteSpace=wrap;html=1;" parent="WIyWlLk6GJQsqaUBKTNV-1" vertex="1">
          <mxGeometry x="160" y="150" width="120" height="60" as="geometry" />
        </mxCell>
        <mxCell id="QhF9T44IF_bWHAfbp_xp-11" value="" style="edgeStyle=orthogonalEdgeStyle;rounded=0;orthogonalLoop=1;jettySize=auto;html=1;" parent="WIyWlLk6GJQsqaUBKTNV-1" source="QhF9T44IF_bWHAfbp_xp-8" target="QhF9T44IF_bWHAfbp_xp-10" edge="1">
          <mxGeometry relative="1" as="geometry" />
        </mxCell>
        <mxCell id="QhF9T44IF_bWHAfbp_xp-17" style="edgeStyle=orthogonalEdgeStyle;rounded=0;orthogonalLoop=1;jettySize=auto;html=1;exitX=0.5;exitY=1;exitDx=0;exitDy=0;entryX=0.5;entryY=0;entryDx=0;entryDy=0;" parent="WIyWlLk6GJQsqaUBKTNV-1" source="QhF9T44IF_bWHAfbp_xp-8" edge="1">
          <mxGeometry relative="1" as="geometry">
            <mxPoint x="220" y="380" as="targetPoint" />
          </mxGeometry>
        </mxCell>
        <mxCell id="QhF9T44IF_bWHAfbp_xp-8" value="是否多程场景" style="rhombus;whiteSpace=wrap;html=1;rounded=0;" parent="WIyWlLk6GJQsqaUBKTNV-1" vertex="1">
          <mxGeometry x="180" y="250" width="80" height="80" as="geometry" />
        </mxCell>
        <mxCell id="QhF9T44IF_bWHAfbp_xp-24" value="" style="edgeStyle=orthogonalEdgeStyle;rounded=0;orthogonalLoop=1;jettySize=auto;html=1;" parent="WIyWlLk6GJQsqaUBKTNV-1" source="QhF9T44IF_bWHAfbp_xp-10" target="QhF9T44IF_bWHAfbp_xp-20" edge="1">
          <mxGeometry relative="1" as="geometry">
            <mxPoint x="310" y="410" as="targetPoint" />
            <Array as="points">
              <mxPoint x="401" y="410" />
            </Array>
          </mxGeometry>
        </mxCell>
        <mxCell id="QhF9T44IF_bWHAfbp_xp-10" value="Tabs&amp;nbsp;切换展示" style="whiteSpace=wrap;html=1;rounded=0;" parent="WIyWlLk6GJQsqaUBKTNV-1" vertex="1">
          <mxGeometry x="340" y="260" width="120" height="60" as="geometry" />
        </mxCell>
        <mxCell id="QhF9T44IF_bWHAfbp_xp-12" value="Yes" style="text;html=1;align=center;verticalAlign=middle;resizable=0;points=[];autosize=1;strokeColor=none;fillColor=none;" parent="WIyWlLk6GJQsqaUBKTNV-1" vertex="1">
          <mxGeometry x="270" y="260" width="40" height="30" as="geometry" />
        </mxCell>
        <mxCell id="QhF9T44IF_bWHAfbp_xp-18" value="No" style="text;html=1;align=center;verticalAlign=middle;resizable=0;points=[];autosize=1;strokeColor=none;fillColor=none;" parent="WIyWlLk6GJQsqaUBKTNV-1" vertex="1">
          <mxGeometry x="220" y="338" width="40" height="30" as="geometry" />
        </mxCell>
        <mxCell id="QhF9T44IF_bWHAfbp_xp-26" value="" style="edgeStyle=orthogonalEdgeStyle;rounded=0;orthogonalLoop=1;jettySize=auto;html=1;" parent="WIyWlLk6GJQsqaUBKTNV-1" source="QhF9T44IF_bWHAfbp_xp-20" target="QhF9T44IF_bWHAfbp_xp-25" edge="1">
          <mxGeometry relative="1" as="geometry" />
        </mxCell>
        <mxCell id="QhF9T44IF_bWHAfbp_xp-20" value="展示人程卡片" style="whiteSpace=wrap;html=1;rounded=0;" parent="WIyWlLk6GJQsqaUBKTNV-1" vertex="1">
          <mxGeometry x="160" y="380" width="120" height="60" as="geometry" />
        </mxCell>
        <mxCell id="QhF9T44IF_bWHAfbp_xp-122" value="" style="edgeStyle=orthogonalEdgeStyle;rounded=0;orthogonalLoop=1;jettySize=auto;html=1;" parent="WIyWlLk6GJQsqaUBKTNV-1" source="QhF9T44IF_bWHAfbp_xp-21" target="QhF9T44IF_bWHAfbp_xp-121" edge="1">
          <mxGeometry relative="1" as="geometry" />
        </mxCell>
        <mxCell id="QhF9T44IF_bWHAfbp_xp-21" value="切换tabs操作" style="whiteSpace=wrap;html=1;rounded=0;" parent="WIyWlLk6GJQsqaUBKTNV-1" vertex="1">
          <mxGeometry x="986" y="95" width="120" height="45" as="geometry" />
        </mxCell>
        <mxCell id="QhF9T44IF_bWHAfbp_xp-28" value="" style="edgeStyle=orthogonalEdgeStyle;rounded=0;orthogonalLoop=1;jettySize=auto;html=1;" parent="WIyWlLk6GJQsqaUBKTNV-1" source="QhF9T44IF_bWHAfbp_xp-25" target="QhF9T44IF_bWHAfbp_xp-27" edge="1">
          <mxGeometry relative="1" as="geometry" />
        </mxCell>
        <mxCell id="QhF9T44IF_bWHAfbp_xp-32" value="" style="edgeStyle=orthogonalEdgeStyle;rounded=0;orthogonalLoop=1;jettySize=auto;html=1;" parent="WIyWlLk6GJQsqaUBKTNV-1" source="QhF9T44IF_bWHAfbp_xp-25" target="QhF9T44IF_bWHAfbp_xp-31" edge="1">
          <mxGeometry relative="1" as="geometry" />
        </mxCell>
        <mxCell id="QhF9T44IF_bWHAfbp_xp-25" value="是否多人场景" style="rhombus;whiteSpace=wrap;html=1;rounded=0;" parent="WIyWlLk6GJQsqaUBKTNV-1" vertex="1">
          <mxGeometry x="180" y="510" width="80" height="80" as="geometry" />
        </mxCell>
        <mxCell id="QhF9T44IF_bWHAfbp_xp-42" value="" style="edgeStyle=orthogonalEdgeStyle;rounded=0;orthogonalLoop=1;jettySize=auto;html=1;entryX=1;entryY=0.5;entryDx=0;entryDy=0;" parent="WIyWlLk6GJQsqaUBKTNV-1" source="QhF9T44IF_bWHAfbp_xp-27" target="QhF9T44IF_bWHAfbp_xp-31" edge="1">
          <mxGeometry relative="1" as="geometry">
            <mxPoint x="400" y="660" as="targetPoint" />
            <Array as="points">
              <mxPoint x="400" y="690" />
            </Array>
          </mxGeometry>
        </mxCell>
        <mxCell id="QhF9T44IF_bWHAfbp_xp-27" value="循环渲染多人可购买行李额额度(标识：passenerId)" style="whiteSpace=wrap;html=1;rounded=0;" parent="WIyWlLk6GJQsqaUBKTNV-1" vertex="1">
          <mxGeometry x="340" y="520" width="120" height="60" as="geometry" />
        </mxCell>
        <mxCell id="QhF9T44IF_bWHAfbp_xp-29" value="&lt;span style=&quot;color: rgb(0, 0, 0); font-family: Helvetica; font-size: 12px; font-style: normal; font-variant-ligatures: normal; font-variant-caps: normal; font-weight: 400; letter-spacing: normal; orphans: 2; text-align: center; text-indent: 0px; text-transform: none; widows: 2; word-spacing: 0px; -webkit-text-stroke-width: 0px; white-space: nowrap; background-color: rgb(251, 251, 251); text-decoration-thickness: initial; text-decoration-style: initial; text-decoration-color: initial; display: inline !important; float: none;&quot;&gt;Yes&lt;/span&gt;" style="text;whiteSpace=wrap;html=1;" parent="WIyWlLk6GJQsqaUBKTNV-1" vertex="1">
          <mxGeometry x="280" y="520" width="50" height="50" as="geometry" />
        </mxCell>
        <mxCell id="QhF9T44IF_bWHAfbp_xp-44" value="" style="edgeStyle=orthogonalEdgeStyle;rounded=0;orthogonalLoop=1;jettySize=auto;html=1;" parent="WIyWlLk6GJQsqaUBKTNV-1" source="QhF9T44IF_bWHAfbp_xp-31" target="QhF9T44IF_bWHAfbp_xp-43" edge="1">
          <mxGeometry relative="1" as="geometry" />
        </mxCell>
        <mxCell id="QhF9T44IF_bWHAfbp_xp-31" value="单人购买额度组件" style="whiteSpace=wrap;html=1;rounded=0;" parent="WIyWlLk6GJQsqaUBKTNV-1" vertex="1">
          <mxGeometry x="160" y="660" width="120" height="60" as="geometry" />
        </mxCell>
        <mxCell id="QhF9T44IF_bWHAfbp_xp-33" value="No" style="text;html=1;align=center;verticalAlign=middle;resizable=0;points=[];autosize=1;strokeColor=none;fillColor=none;" parent="WIyWlLk6GJQsqaUBKTNV-1" vertex="1">
          <mxGeometry x="220" y="610" width="40" height="30" as="geometry" />
        </mxCell>
        <mxCell id="QhF9T44IF_bWHAfbp_xp-37" value="" style="edgeStyle=orthogonalEdgeStyle;rounded=0;orthogonalLoop=1;jettySize=auto;html=1;" parent="WIyWlLk6GJQsqaUBKTNV-1" source="QhF9T44IF_bWHAfbp_xp-34" target="QhF9T44IF_bWHAfbp_xp-36" edge="1">
          <mxGeometry relative="1" as="geometry" />
        </mxCell>
        <mxCell id="QhF9T44IF_bWHAfbp_xp-39" value="" style="edgeStyle=orthogonalEdgeStyle;rounded=0;orthogonalLoop=1;jettySize=auto;html=1;" parent="WIyWlLk6GJQsqaUBKTNV-1" source="QhF9T44IF_bWHAfbp_xp-34" target="QhF9T44IF_bWHAfbp_xp-38" edge="1">
          <mxGeometry relative="1" as="geometry" />
        </mxCell>
        <mxCell id="QhF9T44IF_bWHAfbp_xp-34" value="当前程当前人已选额度" style="rhombus;whiteSpace=wrap;html=1;rounded=0;" parent="WIyWlLk6GJQsqaUBKTNV-1" vertex="1">
          <mxGeometry x="1006" y="300" width="80" height="80" as="geometry" />
        </mxCell>
        <mxCell id="QhF9T44IF_bWHAfbp_xp-157" style="edgeStyle=orthogonalEdgeStyle;rounded=0;orthogonalLoop=1;jettySize=auto;html=1;exitX=0.5;exitY=1;exitDx=0;exitDy=0;entryX=0.5;entryY=0;entryDx=0;entryDy=0;" parent="WIyWlLk6GJQsqaUBKTNV-1" source="QhF9T44IF_bWHAfbp_xp-36" target="QhF9T44IF_bWHAfbp_xp-140" edge="1">
          <mxGeometry relative="1" as="geometry" />
        </mxCell>
        <mxCell id="QhF9T44IF_bWHAfbp_xp-36" value="选择行李额度" style="whiteSpace=wrap;html=1;rounded=0;" parent="WIyWlLk6GJQsqaUBKTNV-1" vertex="1">
          <mxGeometry x="986" y="440" width="120" height="60" as="geometry" />
        </mxCell>
        <mxCell id="QhF9T44IF_bWHAfbp_xp-171" style="edgeStyle=orthogonalEdgeStyle;rounded=0;orthogonalLoop=1;jettySize=auto;html=1;exitX=0.5;exitY=1;exitDx=0;exitDy=0;entryX=1;entryY=0.5;entryDx=0;entryDy=0;" parent="WIyWlLk6GJQsqaUBKTNV-1" source="QhF9T44IF_bWHAfbp_xp-38" target="QhF9T44IF_bWHAfbp_xp-36" edge="1">
          <mxGeometry relative="1" as="geometry" />
        </mxCell>
        <mxCell id="QhF9T44IF_bWHAfbp_xp-38" value="1. 已选额度回填&amp;nbsp;&lt;br&gt;2. 总计价格，额度回填" style="whiteSpace=wrap;html=1;rounded=0;" parent="WIyWlLk6GJQsqaUBKTNV-1" vertex="1">
          <mxGeometry x="1403" y="310" width="120" height="60" as="geometry" />
        </mxCell>
        <mxCell id="QhF9T44IF_bWHAfbp_xp-40" value="Yes" style="text;html=1;align=center;verticalAlign=middle;resizable=0;points=[];autosize=1;strokeColor=none;fillColor=none;" parent="WIyWlLk6GJQsqaUBKTNV-1" vertex="1">
          <mxGeometry x="1211" y="310" width="40" height="30" as="geometry" />
        </mxCell>
        <mxCell id="QhF9T44IF_bWHAfbp_xp-47" value="" style="edgeStyle=orthogonalEdgeStyle;rounded=0;orthogonalLoop=1;jettySize=auto;html=1;" parent="WIyWlLk6GJQsqaUBKTNV-1" source="QhF9T44IF_bWHAfbp_xp-43" target="QhF9T44IF_bWHAfbp_xp-46" edge="1">
          <mxGeometry relative="1" as="geometry" />
        </mxCell>
        <mxCell id="QhF9T44IF_bWHAfbp_xp-50" value="" style="edgeStyle=orthogonalEdgeStyle;rounded=0;orthogonalLoop=1;jettySize=auto;html=1;" parent="WIyWlLk6GJQsqaUBKTNV-1" source="QhF9T44IF_bWHAfbp_xp-43" target="QhF9T44IF_bWHAfbp_xp-49" edge="1">
          <mxGeometry relative="1" as="geometry" />
        </mxCell>
        <mxCell id="QhF9T44IF_bWHAfbp_xp-43" value="是否可购买行李额" style="rhombus;whiteSpace=wrap;html=1;rounded=0;" parent="WIyWlLk6GJQsqaUBKTNV-1" vertex="1">
          <mxGeometry x="180" y="790" width="80" height="80" as="geometry" />
        </mxCell>
        <mxCell id="QhF9T44IF_bWHAfbp_xp-46" value="渲染购行李额组件" style="whiteSpace=wrap;html=1;rounded=0;" parent="WIyWlLk6GJQsqaUBKTNV-1" vertex="1">
          <mxGeometry x="320" y="800" width="120" height="60" as="geometry" />
        </mxCell>
        <mxCell id="QhF9T44IF_bWHAfbp_xp-55" value="" style="edgeStyle=orthogonalEdgeStyle;rounded=0;orthogonalLoop=1;jettySize=auto;html=1;" parent="WIyWlLk6GJQsqaUBKTNV-1" source="QhF9T44IF_bWHAfbp_xp-49" target="QhF9T44IF_bWHAfbp_xp-53" edge="1">
          <mxGeometry relative="1" as="geometry" />
        </mxCell>
        <mxCell id="QhF9T44IF_bWHAfbp_xp-49" value="渲染不可购买标识" style="whiteSpace=wrap;html=1;rounded=0;" parent="WIyWlLk6GJQsqaUBKTNV-1" vertex="1">
          <mxGeometry x="160" y="960" width="120" height="60" as="geometry" />
        </mxCell>
        <mxCell id="QhF9T44IF_bWHAfbp_xp-53" value="End" style="rounded=1;whiteSpace=wrap;html=1;" parent="WIyWlLk6GJQsqaUBKTNV-1" vertex="1">
          <mxGeometry x="160" y="1070" width="120" height="60" as="geometry" />
        </mxCell>
        <mxCell id="QhF9T44IF_bWHAfbp_xp-57" value="No" style="text;html=1;align=center;verticalAlign=middle;resizable=0;points=[];autosize=1;strokeColor=none;fillColor=none;" parent="WIyWlLk6GJQsqaUBKTNV-1" vertex="1">
          <mxGeometry x="1056" y="380" width="40" height="30" as="geometry" />
        </mxCell>
        <mxCell id="QhF9T44IF_bWHAfbp_xp-149" value="" style="edgeStyle=orthogonalEdgeStyle;rounded=0;orthogonalLoop=1;jettySize=auto;html=1;" parent="WIyWlLk6GJQsqaUBKTNV-1" source="QhF9T44IF_bWHAfbp_xp-58" target="QhF9T44IF_bWHAfbp_xp-60" edge="1">
          <mxGeometry relative="1" as="geometry" />
        </mxCell>
        <mxCell id="QhF9T44IF_bWHAfbp_xp-58" value="选择非默认展示额度" style="whiteSpace=wrap;html=1;rounded=0;" parent="WIyWlLk6GJQsqaUBKTNV-1" vertex="1">
          <mxGeometry x="1271" y="555" width="120" height="60" as="geometry" />
        </mxCell>
        <mxCell id="QhF9T44IF_bWHAfbp_xp-152" value="" style="edgeStyle=orthogonalEdgeStyle;rounded=0;orthogonalLoop=1;jettySize=auto;html=1;entryX=1;entryY=0.5;entryDx=0;entryDy=0;" parent="WIyWlLk6GJQsqaUBKTNV-1" source="QhF9T44IF_bWHAfbp_xp-60" target="QhF9T44IF_bWHAfbp_xp-64" edge="1">
          <mxGeometry relative="1" as="geometry">
            <mxPoint x="1203" y="670" as="targetPoint" />
          </mxGeometry>
        </mxCell>
        <mxCell id="QhF9T44IF_bWHAfbp_xp-60" value="将信息存储到全局：&lt;br&gt;1. 当前人&lt;br&gt;2. 当前程&lt;br&gt;3. 当前所选行李额&lt;br&gt;4. 总计价格，额度" style="whiteSpace=wrap;html=1;rounded=0;" parent="WIyWlLk6GJQsqaUBKTNV-1" vertex="1">
          <mxGeometry x="1251" y="640" width="160" height="100" as="geometry" />
        </mxCell>
        <mxCell id="QhF9T44IF_bWHAfbp_xp-67" value="" style="edgeStyle=orthogonalEdgeStyle;rounded=0;orthogonalLoop=1;jettySize=auto;html=1;" parent="WIyWlLk6GJQsqaUBKTNV-1" source="QhF9T44IF_bWHAfbp_xp-64" target="QhF9T44IF_bWHAfbp_xp-66" edge="1">
          <mxGeometry relative="1" as="geometry" />
        </mxCell>
        <mxCell id="QhF9T44IF_bWHAfbp_xp-64" value="提交" style="whiteSpace=wrap;html=1;rounded=0;" parent="WIyWlLk6GJQsqaUBKTNV-1" vertex="1">
          <mxGeometry x="986" y="660" width="120" height="60" as="geometry" />
        </mxCell>
        <mxCell id="QhF9T44IF_bWHAfbp_xp-75" value="" style="edgeStyle=orthogonalEdgeStyle;rounded=0;orthogonalLoop=1;jettySize=auto;html=1;" parent="WIyWlLk6GJQsqaUBKTNV-1" source="QhF9T44IF_bWHAfbp_xp-66" target="QhF9T44IF_bWHAfbp_xp-74" edge="1">
          <mxGeometry relative="1" as="geometry" />
        </mxCell>
        <mxCell id="QhF9T44IF_bWHAfbp_xp-132" value="" style="edgeStyle=orthogonalEdgeStyle;rounded=0;orthogonalLoop=1;jettySize=auto;html=1;" parent="WIyWlLk6GJQsqaUBKTNV-1" source="QhF9T44IF_bWHAfbp_xp-66" target="QhF9T44IF_bWHAfbp_xp-128" edge="1">
          <mxGeometry relative="1" as="geometry" />
        </mxCell>
        <mxCell id="QhF9T44IF_bWHAfbp_xp-66" value="是否已选任一行李额度（不区分多人单人场景）" style="rhombus;whiteSpace=wrap;html=1;rounded=0;" parent="WIyWlLk6GJQsqaUBKTNV-1" vertex="1">
          <mxGeometry x="1006" y="781" width="80" height="80" as="geometry" />
        </mxCell>
        <mxCell id="QhF9T44IF_bWHAfbp_xp-89" value="" style="edgeStyle=orthogonalEdgeStyle;rounded=0;orthogonalLoop=1;jettySize=auto;html=1;" parent="WIyWlLk6GJQsqaUBKTNV-1" source="QhF9T44IF_bWHAfbp_xp-74" target="QhF9T44IF_bWHAfbp_xp-88" edge="1">
          <mxGeometry relative="1" as="geometry" />
        </mxCell>
        <mxCell id="QhF9T44IF_bWHAfbp_xp-93" value="" style="edgeStyle=orthogonalEdgeStyle;rounded=0;orthogonalLoop=1;jettySize=auto;html=1;" parent="WIyWlLk6GJQsqaUBKTNV-1" source="QhF9T44IF_bWHAfbp_xp-74" target="QhF9T44IF_bWHAfbp_xp-92" edge="1">
          <mxGeometry relative="1" as="geometry" />
        </mxCell>
        <mxCell id="QhF9T44IF_bWHAfbp_xp-74" value="公司支付" style="rhombus;whiteSpace=wrap;html=1;rounded=0;" parent="WIyWlLk6GJQsqaUBKTNV-1" vertex="1">
          <mxGeometry x="1006" y="904" width="80" height="80" as="geometry" />
        </mxCell>
        <mxCell id="QhF9T44IF_bWHAfbp_xp-76" value="No" style="text;html=1;align=center;verticalAlign=middle;resizable=0;points=[];autosize=1;strokeColor=none;fillColor=none;" parent="WIyWlLk6GJQsqaUBKTNV-1" vertex="1">
          <mxGeometry x="1046" y="884" width="40" height="30" as="geometry" />
        </mxCell>
        <mxCell id="-pcuXVMgXv39p7aMlk_b-4" style="edgeStyle=orthogonalEdgeStyle;rounded=0;orthogonalLoop=1;jettySize=auto;html=1;exitX=1;exitY=0.5;exitDx=0;exitDy=0;entryX=1;entryY=0.5;entryDx=0;entryDy=0;" edge="1" parent="WIyWlLk6GJQsqaUBKTNV-1" source="QhF9T44IF_bWHAfbp_xp-88" target="QhF9T44IF_bWHAfbp_xp-97">
          <mxGeometry relative="1" as="geometry">
            <Array as="points">
              <mxPoint x="1480" y="944" />
              <mxPoint x="1480" y="1191" />
            </Array>
          </mxGeometry>
        </mxCell>
        <mxCell id="QhF9T44IF_bWHAfbp_xp-88" value="走公账支付" style="whiteSpace=wrap;html=1;rounded=0;" parent="WIyWlLk6GJQsqaUBKTNV-1" vertex="1">
          <mxGeometry x="1283" y="914" width="120" height="60" as="geometry" />
        </mxCell>
        <mxCell id="QhF9T44IF_bWHAfbp_xp-91" value="Yes" style="text;html=1;align=center;verticalAlign=middle;resizable=0;points=[];autosize=1;strokeColor=none;fillColor=none;" parent="WIyWlLk6GJQsqaUBKTNV-1" vertex="1">
          <mxGeometry x="1096" y="914" width="40" height="30" as="geometry" />
        </mxCell>
        <mxCell id="QhF9T44IF_bWHAfbp_xp-98" value="" style="edgeStyle=orthogonalEdgeStyle;rounded=0;orthogonalLoop=1;jettySize=auto;html=1;" parent="WIyWlLk6GJQsqaUBKTNV-1" source="QhF9T44IF_bWHAfbp_xp-92" target="QhF9T44IF_bWHAfbp_xp-97" edge="1">
          <mxGeometry relative="1" as="geometry" />
        </mxCell>
        <mxCell id="-pcuXVMgXv39p7aMlk_b-1" value="" style="edgeStyle=orthogonalEdgeStyle;rounded=0;orthogonalLoop=1;jettySize=auto;html=1;" edge="1" parent="WIyWlLk6GJQsqaUBKTNV-1" source="QhF9T44IF_bWHAfbp_xp-92" target="-pcuXVMgXv39p7aMlk_b-0">
          <mxGeometry relative="1" as="geometry" />
        </mxCell>
        <mxCell id="QhF9T44IF_bWHAfbp_xp-92" value="个人支付" style="whiteSpace=wrap;html=1;rounded=0;" parent="WIyWlLk6GJQsqaUBKTNV-1" vertex="1">
          <mxGeometry x="986" y="1044" width="120" height="60" as="geometry" />
        </mxCell>
        <mxCell id="QhF9T44IF_bWHAfbp_xp-94" value="No" style="text;html=1;align=center;verticalAlign=middle;resizable=0;points=[];autosize=1;strokeColor=none;fillColor=none;" parent="WIyWlLk6GJQsqaUBKTNV-1" vertex="1">
          <mxGeometry x="1043" y="1001" width="40" height="30" as="geometry" />
        </mxCell>
        <mxCell id="QhF9T44IF_bWHAfbp_xp-100" value="" style="edgeStyle=orthogonalEdgeStyle;rounded=0;orthogonalLoop=1;jettySize=auto;html=1;" parent="WIyWlLk6GJQsqaUBKTNV-1" source="QhF9T44IF_bWHAfbp_xp-97" target="QhF9T44IF_bWHAfbp_xp-99" edge="1">
          <mxGeometry relative="1" as="geometry" />
        </mxCell>
        <mxCell id="QhF9T44IF_bWHAfbp_xp-97" value="跳转完成页" style="whiteSpace=wrap;html=1;rounded=0;" parent="WIyWlLk6GJQsqaUBKTNV-1" vertex="1">
          <mxGeometry x="986" y="1161" width="120" height="60" as="geometry" />
        </mxCell>
        <mxCell id="QhF9T44IF_bWHAfbp_xp-99" value="End" style="rounded=1;whiteSpace=wrap;html=1;" parent="WIyWlLk6GJQsqaUBKTNV-1" vertex="1">
          <mxGeometry x="986" y="1281" width="120" height="40" as="geometry" />
        </mxCell>
        <mxCell id="QhF9T44IF_bWHAfbp_xp-102" style="edgeStyle=orthogonalEdgeStyle;rounded=0;orthogonalLoop=1;jettySize=auto;html=1;exitX=0.5;exitY=1;exitDx=0;exitDy=0;entryX=0.5;entryY=0;entryDx=0;entryDy=0;" parent="WIyWlLk6GJQsqaUBKTNV-1" source="QhF9T44IF_bWHAfbp_xp-101" target="QhF9T44IF_bWHAfbp_xp-21" edge="1">
          <mxGeometry relative="1" as="geometry" />
        </mxCell>
        <mxCell id="QhF9T44IF_bWHAfbp_xp-101" value="Start" style="rounded=1;whiteSpace=wrap;html=1;fontSize=12;glass=0;strokeWidth=1;shadow=0;" parent="WIyWlLk6GJQsqaUBKTNV-1" vertex="1">
          <mxGeometry x="986" y="22" width="120" height="40" as="geometry" />
        </mxCell>
        <mxCell id="QhF9T44IF_bWHAfbp_xp-123" value="" style="edgeStyle=orthogonalEdgeStyle;rounded=0;orthogonalLoop=1;jettySize=auto;html=1;" parent="WIyWlLk6GJQsqaUBKTNV-1" source="QhF9T44IF_bWHAfbp_xp-121" target="QhF9T44IF_bWHAfbp_xp-34" edge="1">
          <mxGeometry relative="1" as="geometry" />
        </mxCell>
        <mxCell id="QhF9T44IF_bWHAfbp_xp-121" value="将当前tab信息存储到全局：&lt;div&gt;1. 当前程( tabsId)&lt;/div&gt;&lt;div&gt;2. 当前人（passageId)&lt;br&gt;3. 当前所选行李额&lt;br&gt;4. 总计价格，额度&lt;/div&gt;" style="whiteSpace=wrap;html=1;rounded=0;" parent="WIyWlLk6GJQsqaUBKTNV-1" vertex="1">
          <mxGeometry x="937.5" y="170" width="217" height="80" as="geometry" />
        </mxCell>
        <mxCell id="QhF9T44IF_bWHAfbp_xp-174" value="" style="edgeStyle=orthogonalEdgeStyle;rounded=0;orthogonalLoop=1;jettySize=auto;html=1;entryX=1;entryY=0.5;entryDx=0;entryDy=0;" parent="WIyWlLk6GJQsqaUBKTNV-1" source="QhF9T44IF_bWHAfbp_xp-128" target="QhF9T44IF_bWHAfbp_xp-36" edge="1">
          <mxGeometry relative="1" as="geometry">
            <mxPoint x="1472.25" y="831" as="targetPoint" />
            <Array as="points">
              <mxPoint x="1463" y="821" />
              <mxPoint x="1463" y="470" />
            </Array>
          </mxGeometry>
        </mxCell>
        <mxCell id="QhF9T44IF_bWHAfbp_xp-128" value="提醒选择行李额度" style="whiteSpace=wrap;html=1;rounded=0;" parent="WIyWlLk6GJQsqaUBKTNV-1" vertex="1">
          <mxGeometry x="1274.5" y="791" width="118.5" height="60" as="geometry" />
        </mxCell>
        <mxCell id="QhF9T44IF_bWHAfbp_xp-158" value="" style="edgeStyle=orthogonalEdgeStyle;rounded=0;orthogonalLoop=1;jettySize=auto;html=1;" parent="WIyWlLk6GJQsqaUBKTNV-1" source="QhF9T44IF_bWHAfbp_xp-140" target="QhF9T44IF_bWHAfbp_xp-64" edge="1">
          <mxGeometry relative="1" as="geometry" />
        </mxCell>
        <mxCell id="QhF9T44IF_bWHAfbp_xp-159" style="edgeStyle=orthogonalEdgeStyle;rounded=0;orthogonalLoop=1;jettySize=auto;html=1;exitX=1;exitY=0.5;exitDx=0;exitDy=0;" parent="WIyWlLk6GJQsqaUBKTNV-1" source="QhF9T44IF_bWHAfbp_xp-140" target="QhF9T44IF_bWHAfbp_xp-58" edge="1">
          <mxGeometry relative="1" as="geometry" />
        </mxCell>
        <mxCell id="QhF9T44IF_bWHAfbp_xp-140" value="选择默认" style="rhombus;whiteSpace=wrap;html=1;rounded=0;" parent="WIyWlLk6GJQsqaUBKTNV-1" vertex="1">
          <mxGeometry x="1006" y="544.5" width="80" height="80" as="geometry" />
        </mxCell>
        <mxCell id="QhF9T44IF_bWHAfbp_xp-160" value="No" style="text;html=1;align=center;verticalAlign=middle;resizable=0;points=[];autosize=1;strokeColor=none;fillColor=none;" parent="WIyWlLk6GJQsqaUBKTNV-1" vertex="1">
          <mxGeometry x="1166" y="544.5" width="40" height="30" as="geometry" />
        </mxCell>
        <mxCell id="QhF9T44IF_bWHAfbp_xp-169" value="Yes" style="text;html=1;align=center;verticalAlign=middle;resizable=0;points=[];autosize=1;strokeColor=none;fillColor=none;" parent="WIyWlLk6GJQsqaUBKTNV-1" vertex="1">
          <mxGeometry x="1046" y="624.5" width="40" height="30" as="geometry" />
        </mxCell>
        <mxCell id="-pcuXVMgXv39p7aMlk_b-6" style="edgeStyle=orthogonalEdgeStyle;rounded=0;orthogonalLoop=1;jettySize=auto;html=1;exitX=1;exitY=0.5;exitDx=0;exitDy=0;" edge="1" parent="WIyWlLk6GJQsqaUBKTNV-1" source="-pcuXVMgXv39p7aMlk_b-0">
          <mxGeometry relative="1" as="geometry">
            <mxPoint x="1480" y="1074" as="targetPoint" />
          </mxGeometry>
        </mxCell>
        <mxCell id="-pcuXVMgXv39p7aMlk_b-0" value="跳转收银台" style="whiteSpace=wrap;html=1;rounded=0;" vertex="1" parent="WIyWlLk6GJQsqaUBKTNV-1">
          <mxGeometry x="1283" y="1044" width="120" height="60" as="geometry" />
        </mxCell>
      </root>
    </mxGraphModel>
  </diagram>
</mxfile>
